<?xml version="1.0" encoding="utf-8"?>
<!-- Generator: Adobe Illustrator 25.2.0, SVG Export Plug-In . SVG Version: 6.00 Build 0)  -->
<svg version="1.1" id="Capa_1" xmlns="http://www.w3.org/2000/svg" xmlns:xlink="http://www.w3.org/1999/xlink" x="0px" y="0px"
	 viewBox="0 0 33.3 20" style="enable-background:new 0 0 33.3 20;" xml:space="preserve">
<style type="text/css">
	.st0{fill-rule:evenodd;clip-rule:evenodd;fill:#EC0000;}
</style>
<path class="st0" d="M29.2,0c2.3,0,4.1,1.8,4.2,4.1v12.5c0,1.8-1.5,3.3-3.3,3.3c0,0,0,0,0,0H3.3C1.5,20,0,18.5,0,16.7c0,0,0,0,0,0
	V3.3C0,1.5,1.5,0,3.3,0c0,0,0,0,0,0H29.2z M29.2,1.7H3.3c-0.9,0-1.7,0.7-1.7,1.7v13.3c0,0.9,0.7,1.7,1.7,1.7H30
	c0.9,0,1.7-0.7,1.7-1.7V4.1C31.6,2.8,30.5,1.7,29.2,1.7z M12.9,11.7c1.9,0,3.6,1.4,3.8,3.3c0,0.9-0.7,1.7-1.7,1.7H5
	c-0.9,0-1.7-0.7-1.7-1.7c0.2-1.9,1.8-3.3,3.8-3.3c0.4,0,0.8,0.1,1.2,0.2l0.2,0.1l0.9,0.3c0.2,0.1,0.4,0,0.5,0.1
	c0.2,0,0.4-0.1,0.6-0.1l0.3-0.1C11.6,11.9,12.2,11.7,12.9,11.7z M7.1,13.3c-1,0-1.9,0.7-2.1,1.7h10c-0.2-0.9-1.1-1.6-2-1.6
	c-0.6,0-1.1,0.1-1.7,0.3L11,13.7c-0.6,0.2-1.3,0.2-1.9,0c-0.3-0.1-0.6-0.2-0.9-0.2L8,13.5C7.7,13.4,7.4,13.3,7.1,13.3z M29.2,13.3
	c0.5,0,0.8,0.4,0.8,0.8S29.6,15,29.2,15h-10c-0.5,0-0.8-0.4-0.8-0.8s0.4-0.8,0.8-0.8H29.2z M29.2,9.2c0.5,0,0.8,0.4,0.8,0.8
	s-0.4,0.8-0.8,0.8h-10c-0.5,0-0.8-0.4-0.8-0.8s0.4-0.8,0.8-0.8H29.2z M7.7,4.4c1.3-1.3,3.4-1.3,4.7,0c0.5,0.5,0.7,1.3,0.6,2
	l-0.3,2.1C12.4,10,11,11,9.6,10.8c-1.1-0.2-2-1.1-2.2-2.2L7.1,6.4C7,5.7,7.2,5,7.7,4.4z M10,5C9.6,5,9.2,5.2,8.9,5.5
	C8.8,5.7,8.7,5.9,8.7,6.1L9,8.3c0.1,0.6,0.6,0.9,1.2,0.8c0.4-0.1,0.7-0.4,0.8-0.8l0.3-2.2c0-0.2,0-0.5-0.2-0.7C10.8,5.2,10.4,5,10,5
	z M29.2,5C29.6,5,30,5.4,30,5.8s-0.4,0.8-0.8,0.8h-10c-0.5,0-0.8-0.4-0.8-0.8S18.7,5,19.2,5H29.2z"/>
</svg>
