<?xml version="1.0" encoding="utf-8"?>
<!-- Generator: Adobe Illustrator 25.2.0, SVG Export Plug-In . SVG Version: 6.00 Build 0)  -->
<svg version="1.1" id="Capa_1" xmlns="http://www.w3.org/2000/svg" xmlns:xlink="http://www.w3.org/1999/xlink" x="0px" y="0px"
	 viewBox="0 0 33.3 20" style="enable-background:new 0 0 33.3 20;" xml:space="preserve">
<style type="text/css">
	.st0{fill-rule:evenodd;clip-rule:evenodd;fill:#EC0000;}
</style>
<path class="st0" d="M30.1,0c1.8,0,3.3,1.5,3.3,3.3v13.5c0,1.8-1.5,3.3-3.3,3.3H3.3C1.5,20,0,18.5,0,16.7V3.3C0,1.5,1.5,0,3.3,0
	H30.1z M30.1,1.7H3.3c-0.9,0-1.6,0.7-1.6,1.6v13.5c0,0.9,0.7,1.6,1.6,1.6h26.8c0.9,0,1.6-0.7,1.6-1.6V3.3
	C31.7,2.4,30.9,1.7,30.1,1.7z M10,7.1c0.5,0,0.8,0.4,0.8,0.8v4.1c0,0.5-0.4,0.8-0.8,0.8H5.8c-0.5,0-0.8-0.4-0.8-0.8c0,0,0,0,0,0V7.9
	c0-0.5,0.4-0.8,0.8-0.8H10z M9.2,8.8H6.7v2.5h2.5C9.2,11.2,9.2,8.8,9.2,8.8z"/>
</svg>
